<svg xmlns="http://www.w3.org/2000/svg" version="1.1" xmlns:xlink="http://www.w3.org/1999/xlink" xmlns:svgjs="http://svgjs.com/svgjs" width="300.000000pt" height="300.000000pt"><svg version="1.0" xmlns="http://www.w3.org/2000/svg" width="300.000000pt" height="300.000000pt" viewBox="0 0 300.000000 300.000000" preserveAspectRatio="xMidYMid meet">
<metadata>
Created by potrace 1.10, written by Peter Selinger 2001-2011
</metadata>
<g transform="translate(0.000000,300.000000) scale(0.100000,-0.100000)" fill="#000000" stroke="none">
<path d="M1060 2697 c0 -4 -4 -6 -9 -3 -4 3 -17 -4 -27 -17 -13 -14 -14 -18
-4 -12 9 6 7 2 -5 -9 -11 -10 -19 -23 -17 -27 1 -5 -3 -9 -9 -9 -5 0 -7 -4 -4
-10 3 -5 1 -10 -5 -10 -7 0 -9 -7 -6 -16 4 -10 2 -13 -6 -8 -8 5 -9 2 -5 -9 4
-10 2 -17 -4 -17 -6 0 -9 -9 -6 -20 3 -11 1 -20 -5 -20 -5 0 -7 -9 -3 -19 3
-11 2 -22 -3 -25 -12 -7 -12 -258 0 -273 5 -7 7 -17 4 -22 -4 -5 -2 -12 3 -16
6 -3 8 -12 4 -20 -3 -8 0 -15 6 -15 6 0 8 -7 5 -15 -4 -8 -1 -15 5 -15 6 0 8
-6 5 -14 -3 -8 3 -23 15 -32 11 -10 18 -21 15 -25 -2 -5 5 -13 16 -19 11 -6
17 -16 14 -22 -4 -6 -3 -8 4 -4 5 3 12 0 15 -6 2 -7 8 -10 12 -6 4 4 -2 22
-13 40 -41 64 -59 103 -65 138 -5 30 -4 32 6 16 37 -57 108 -144 121 -149 19
-8 21 4 4 22 -11 11 -10 13 2 7 8 -4 6 0 -5 9 -11 9 -19 22 -17 28 2 7 0 9 -4
5 -4 -5 -14 2 -23 15 -9 12 -13 23 -11 25 3 2 -3 8 -13 13 -9 6 -15 14 -12 20
4 5 1 9 -5 9 -6 0 -8 5 -5 10 3 6 2 10 -4 10 -6 0 -8 7 -5 15 4 8 1 15 -6 15
-7 0 -9 8 -5 19 3 11 2 22 -3 25 -12 7 -12 156 0 156 5 0 6 9 3 20 -4 12 -2
20 5 20 7 0 9 8 5 20 -4 13 -2 20 6 20 7 0 9 3 6 7 -4 3 1 12 11 20 10 9 11
12 2 7 -10 -5 -9 -1 4 14 10 12 23 19 29 15 6 -3 7 -1 3 5 -17 27 41 10 69
-20 17 -18 23 -28 15 -24 -8 4 -6 0 5 -9 11 -9 19 -21 17 -26 -1 -6 1 -8 5 -6
5 3 17 -7 27 -21 12 -16 14 -23 5 -18 -8 4 0 -5 16 -19 17 -15 23 -24 15 -20
-8 3 -6 -1 5 -10 11 -9 19 -21 17 -26 -1 -6 1 -8 5 -6 5 2 19 -9 33 -26 14
-17 18 -27 10 -22 -8 5 2 -8 23 -28 21 -21 34 -43 31 -49 -4 -6 -3 -8 3 -5 6
4 13 0 17 -8 6 -17 26 -21 26 -5 0 16 -268 367 -285 374 -48 18 -83 4 -123
-48 -20 -27 -22 -27 -22 -7 0 27 34 95 60 121 11 11 33 20 49 20 35 0 36 -1
224 -250 104 -137 137 -175 156 -176 l24 -1 -24 19 c-13 11 -17 16 -9 12 19
-9 -12 29 -55 69 -16 16 -24 26 -16 22 21 -12 -17 42 -48 66 -14 11 -19 17
-11 14 8 -4 2 5 -15 20 -16 14 -23 23 -15 20 8 -4 2 5 -15 20 -16 14 -23 24
-15 20 8 -4 2 6 -15 20 -16 15 -23 24 -15 20 8 -3 2 6 -15 20 -16 15 -23 24
-15 20 10 -4 9 -1 -2 8 -10 8 -18 18 -18 24 0 5 -14 22 -31 39 -23 22 -40 29
-70 29 -21 0 -39 -3 -39 -8z"></path>
<path d="M2337 2680 c-3 -11 -13 -23 -24 -26 -140 -50 -441 -201 -663 -334
-262 -157 -718 -471 -1056 -728 -85 -64 -168 -124 -184 -132 -16 -8 -28 -19
-27 -24 2 -5 36 -17 77 -27 41 -11 192 -57 335 -103 143 -46 314 -101 380
-121 66 -20 174 -54 240 -76 66 -21 179 -56 250 -77 381 -115 437 -135 431
-156 -4 -14 7 -33 34 -63 69 -74 47 -133 -50 -133 -95 0 -423 97 -750 222 -85
32 -160 56 -168 53 -7 -2 -11 -1 -8 4 7 11 -71 41 -90 34 -8 -3 -14 0 -14 6 0
6 -12 18 -27 26 -28 16 -28 16 -3 11 22 -4 23 -3 7 7 -10 7 -58 43 -105 80
-48 37 -96 75 -107 83 -19 15 -18 16 15 9 29 -6 225 -70 280 -92 8 -3 23 -5
33 -4 9 1 17 -3 17 -8 0 -6 11 -11 24 -11 14 0 28 -5 32 -11 3 -6 16 -8 27 -5
11 3 25 -1 31 -8 12 -15 256 -96 288 -96 12 0 18 -5 15 -12 -3 -9 8 -14 32
-15 20 -1 46 -3 59 -4 12 -1 22 -5 22 -9 0 -4 24 -15 53 -24 71 -23 80 -29 72
-55 -12 -37 -36 -42 -111 -21 -38 11 -75 18 -81 15 -7 -2 -13 2 -13 11 0 10
-8 13 -25 10 -14 -3 -31 1 -38 9 -8 8 -19 10 -27 5 -9 -5 -18 -3 -24 5 -17 20
-295 100 -308 87 -7 -7 57 -32 203 -80 339 -112 386 -124 408 -113 35 19 72
72 69 99 -3 24 -19 31 -293 120 -343 111 -649 215 -945 319 -405 143 -585 203
-595 199 -12 -4 52 -33 290 -132 366 -152 496 -225 653 -366 74 -66 95 -79
182 -111 211 -78 720 -222 867 -246 115 -18 163 13 163 104 0 87 8 90 130 50
120 -40 110 -38 110 -27 0 5 -18 14 -41 21 -33 10 -38 15 -29 26 6 8 18 11 25
9 8 -4 24 11 40 36 21 33 24 44 14 56 -6 7 -14 12 -18 10 -4 -3 2 24 14 60 17
54 23 64 39 60 17 -4 16 -1 -6 19 -51 47 -45 184 16 341 19 49 37 106 41 127
4 20 11 37 17 37 23 0 -6 18 -47 30 -25 7 -45 13 -45 14 0 0 14 27 30 59 16
32 32 74 36 93 3 19 10 34 15 34 5 0 -1 14 -13 31 -20 27 -23 42 -22 112 2 89
38 223 70 258 17 18 16 19 -20 19 -63 0 -286 85 -286 108 0 5 25 81 55 170 30
89 55 164 55 167 0 15 -28 2 -33 -15z m-122 -121 c-395 -357 -773 -817 -975
-1187 -40 -74 -48 -82 -70 -79 -14 2 -174 36 -357 76 -182 39 -341 71 -352 71
-12 0 -21 4 -21 8 0 10 305 239 530 398 374 265 619 423 875 564 129 72 440
228 455 229 3 1 -35 -36 -85 -80z m54 -85 c-28 -82 -86 -253 -129 -380 -44
-127 -117 -327 -163 -445 -46 -118 -97 -247 -112 -287 -28 -73 -29 -73 -59
-65 -48 12 -286 5 -440 -12 -77 -8 -142 -13 -144 -10 -3 3 4 12 15 20 12 8 49
50 83 92 34 43 69 87 78 98 23 28 313 412 332 439 8 11 64 81 124 155 l109
134 18 -34 c31 -57 59 -159 59 -213 0 -69 -23 -155 -66 -246 -36 -74 -36 -75
-52 -52 -53 80 -186 244 -190 234 -5 -16 13 -45 97 -155 40 -53 80 -97 87 -97
18 0 18 -4 -2 -41 l-15 -31 -31 49 c-51 81 -160 213 -176 213 -10 0 -12 -4 -5
-12 5 -7 51 -68 101 -135 51 -67 92 -126 92 -130 0 -8 -20 -35 -119 -158 -9
-11 -1 -7 16 9 18 16 52 55 75 87 29 41 45 55 50 46 6 -8 8 -7 6 4 -2 9 18 54
44 100 52 93 93 207 103 284 8 61 -14 164 -50 236 -22 43 -24 53 -13 67 12 16
147 174 217 254 18 22 31 41 29 44 -7 7 -218 -215 -253 -267 -17 -23 -52 -65
-78 -92 -62 -64 -154 -179 -168 -211 -10 -20 -15 -23 -30 -16 -15 9 -18 5 -21
-22 -3 -28 -7 -33 -26 -30 -21 3 -22 1 -13 -17 15 -27 14 -41 -3 -41 -14 0
-136 -158 -165 -214 -9 -17 -17 -33 -18 -35 -2 -2 -9 2 -18 9 -13 10 -15 9
-15 -8 0 -34 -11 -52 -31 -52 -16 0 -18 -3 -9 -19 8 -16 6 -23 -7 -33 -10 -7
-45 -49 -77 -93 -79 -106 -86 -112 -46 -40 111 202 312 484 514 722 127 148
462 486 475 479 5 -3 21 13 36 35 14 22 29 39 31 36 3 -2 -18 -71 -47 -153z
m32 -167 l47 -19 -10 -36 c-19 -70 -59 -133 -130 -207 -39 -41 -74 -75 -77
-75 -4 0 20 81 54 180 33 99 62 179 65 177 3 -1 26 -10 51 -20z m103 -42 c19
-8 59 -20 87 -26 41 -9 49 -14 44 -27 -43 -106 -48 -131 -49 -234 -1 -60 -2
-108 -3 -108 -1 0 -30 8 -65 17 -45 12 -100 17 -190 16 -72 0 -128 3 -128 8 0
6 38 46 85 90 94 90 135 148 160 227 10 28 18 52 20 52 1 0 19 -7 39 -15z
m-39 -395 c33 -6 77 -15 99 -21 38 -10 38 -11 33 -50 -4 -32 -53 -149 -62
-149 -12 0 -347 150 -359 160 -4 5 -4 21 1 37 9 25 15 29 64 33 65 6 143 2
224 -10z m-166 -145 l130 -60 7 -42 c14 -93 -41 -224 -134 -317 -53 -53 -104
-83 -262 -155 -24 -11 -23 -11 8 -6 51 7 172 68 229 114 61 49 133 154 158
229 10 33 16 74 13 112 -2 37 1 59 7 56 6 -2 43 -15 82 -27 67 -22 73 -26 73
-52 0 -15 -15 -67 -34 -115 -47 -124 -59 -183 -54 -271 l4 -78 -60 15 c-87 20
-475 11 -528 -12 -21 -9 -38 -14 -38 -11 0 5 80 222 187 505 14 36 34 91 46
123 12 31 24 56 28 55 4 -2 66 -30 138 -63z m-1249 -415 c96 -22 183 -40 192
-40 21 0 31 -16 21 -33 -6 -11 -39 -4 -163 34 -303 94 -308 98 -50 39z m855
-42 c3 -2 -2 -23 -11 -45 l-16 -41 -52 14 c-65 18 -250 51 -341 61 l-70 8 75
6 c82 7 407 5 415 -3z m-385 -44 c104 -15 329 -60 336 -67 2 -2 -6 -27 -18
-56 -15 -38 -26 -51 -37 -48 -9 3 -97 31 -196 62 -99 31 -211 66 -250 77 -81
24 -79 22 -71 44 7 18 33 16 236 -12z m353 -128 c-10 -30 -23 -56 -30 -56 -9
0 -8 10 4 38 8 20 19 48 24 61 18 47 19 13 2 -43z m600 3 c53 -11 57 -14 57
-41 0 -36 -23 -92 -55 -134 l-25 -33 -45 16 c-25 8 -45 17 -45 20 0 3 7 21 16
40 15 31 15 36 1 50 -8 9 -23 13 -31 10 -25 -10 -32 -38 -13 -52 13 -10 15
-18 6 -48 -11 -41 -24 -53 -42 -39 -7 5 -29 15 -49 21 -36 12 -49 33 -29 45 5
3 30 -2 55 -10 26 -9 49 -14 52 -11 6 5 -252 97 -346 122 -36 10 -69 21 -73
25 -8 7 71 26 143 34 66 8 365 -3 423 -15z m-544 -45 c8 -7 -9 -34 -21 -34
-24 0 -39 16 -32 34 4 12 13 15 28 10 11 -4 23 -8 25 -10z m84 -21 c9 -5 9
-15 -1 -31 -7 -10 -16 -10 -43 -1 -43 15 -41 13 -33 33 5 13 14 16 38 10 17
-3 34 -8 39 -11z m84 -24 c25 -8 30 -13 26 -32 -5 -21 -5 -21 9 -3 14 17 19
18 47 7 33 -14 35 -18 23 -39 -7 -10 -26 -7 -93 14 -46 15 -85 28 -86 28 -1 1
0 12 4 25 4 16 10 20 22 15 9 -3 30 -10 48 -15z m423 -92 c0 -7 -7 -23 -16
-36 -15 -20 -18 -21 -26 -7 -6 10 -3 24 8 41 16 24 34 25 34 2z m-119 -19 c39
-11 46 -22 31 -45 -12 -18 -95 5 -88 24 4 8 6 19 6 24 0 12 5 11 51 -3z"></path>
<path d="M1510 2190 c0 -31 106 -173 134 -178 14 -3 9 10 -24 57 -59 84 -109
139 -110 121z"></path>
<path d="M1450 2149 c0 -15 140 -199 151 -199 20 0 3 32 -68 127 -51 67 -83
95 -83 72z"></path>
<path d="M1160 1947 c0 -21 201 -287 217 -287 7 0 13 3 13 7 0 9 -197 268
-216 283 -11 10 -14 9 -14 -3z"></path>
<path d="M1090 1917 c0 -9 242 -322 251 -325 5 -2 9 1 9 8 0 27 -218 313 -243
318 -10 2 -17 1 -17 -1z"></path>
<path d="M1470 1496 c0 -58 -5 -77 -31 -123 -36 -62 -33 -77 6 -36 46 48 58
81 53 145 -7 89 -28 100 -28 14z"></path>
<path d="M1425 1477 c4 -9 -13 -39 -45 -79 -28 -34 -56 -71 -61 -81 -21 -38
29 2 73 58 53 68 61 90 42 106 -12 10 -13 9 -9 -4z"></path>
<path d="M1997 1494 l5 -79 -47 -63 c-55 -76 -109 -162 -104 -167 5 -4 150
179 168 212 18 34 10 138 -11 160 -15 14 -16 9 -11 -63z"></path>
<path d="M1692 1117 c-26 -27 -28 -39 -7 -31 16 7 40 43 33 50 -3 2 -14 -6
-26 -19z"></path>
<path d="M1010 929 c-14 -12 -18 -18 -10 -14 11 5 10 2 -2 -7 -9 -8 -18 -21
-20 -28 -2 -8 -9 -21 -16 -29 -7 -7 -11 -20 -8 -27 3 -8 1 -14 -5 -14 -6 0 -9
-7 -6 -15 4 -8 1 -17 -4 -21 -6 -3 -8 -16 -5 -29 3 -12 2 -25 -2 -29 -10 -11
-11 -236 0 -236 4 0 6 -11 2 -24 -3 -13 -1 -27 5 -30 5 -4 8 -13 4 -21 -3 -8
0 -15 6 -15 6 0 8 -6 5 -14 -3 -7 2 -20 10 -29 8 -8 12 -17 9 -21 -4 -3 -1 -6
6 -6 7 0 9 -4 6 -10 -3 -5 -1 -10 4 -10 6 0 10 -6 9 -13 -2 -6 3 -11 10 -9 8
1 11 -2 8 -7 -10 -15 35 -41 71 -41 19 0 41 9 55 23 13 12 17 18 8 12 -9 -5
-2 3 14 18 17 15 31 32 31 37 0 5 10 17 23 25 12 9 22 21 22 27 0 6 8 17 18
25 11 9 12 12 2 8 -8 -4 -1 5 15 20 17 14 23 23 15 20 -8 -4 0 6 18 22 18 15
32 34 32 41 0 6 4 12 9 12 5 0 21 17 37 37 15 20 21 33 13 29 -8 -5 0 4 16 19
17 14 23 23 15 20 -8 -4 1 8 20 25 19 17 28 29 20 25 -8 -3 -1 6 15 20 17 15
23 24 15 20 -8 -4 -3 3 12 16 17 14 25 29 20 36 -12 19 -30 -1 -166 -177 -258
-335 -262 -339 -317 -310 -23 13 -69 101 -68 132 0 22 1 22 10 3 14 -28 70
-65 100 -65 13 0 31 6 39 13 13 10 72 80 102 122 5 5 36 46 71 90 95 120 157
206 157 218 0 6 -10 1 -23 -11 -13 -12 -27 -19 -31 -15 -4 5 -6 3 -4 -4 2 -6
-6 -19 -17 -28 -11 -9 -13 -14 -5 -10 10 4 9 2 -2 -8 -10 -8 -18 -20 -18 -26
0 -7 -5 -9 -12 -5 -6 4 -8 3 -5 -3 4 -6 -5 -18 -18 -27 -14 -9 -23 -21 -20
-26 3 -5 -2 -13 -11 -18 -9 -5 -14 -11 -13 -13 7 -8 -28 -49 -36 -41 -5 4 -5
2 -2 -4 4 -7 -4 -19 -18 -28 -14 -9 -24 -20 -22 -25 1 -5 -7 -17 -18 -26 -11
-9 -13 -13 -5 -10 8 4 -1 -7 -20 -25 -19 -18 -28 -29 -20 -24 10 5 9 0 -4 -14
-10 -12 -23 -19 -29 -15 -6 3 -7 1 -3 -5 5 -8 -2 -12 -19 -12 -17 0 -24 4 -19
12 4 6 3 8 -3 5 -6 -4 -18 2 -28 13 -10 11 -15 20 -11 20 4 0 0 7 -9 16 -9 9
-14 23 -11 30 3 7 1 16 -5 20 -5 3 -7 14 -4 24 3 10 2 21 -3 24 -12 7 -12 136
-1 136 5 0 7 11 3 25 -4 15 -2 25 5 25 6 0 8 7 5 15 -4 8 -1 15 6 15 6 0 8 5
5 10 -3 6 -1 10 6 10 7 0 9 3 6 7 -4 3 1 12 11 20 11 10 12 12 2 8 -8 -3 1 8
20 26 19 17 28 28 20 25 -9 -5 -8 -2 3 7 9 8 17 20 17 26 0 7 6 9 13 5 9 -5 9
-4 1 5 -6 6 -17 9 -25 6 -13 -5 -67 -69 -89 -105 -5 -8 -12 -11 -16 -7 -4 3 8
36 25 72 37 74 37 93 1 64z"></path>
</g>
</svg><style>@media (prefers-color-scheme: light) { :root { filter: none; } }
</style></svg>